<?xml version="1.0" encoding="utf-8"?>
<!-- Generator: Adobe Illustrator 16.0.4, SVG Export Plug-In . SVG Version: 6.00 Build 0)  -->
<!DOCTYPE svg PUBLIC "-//W3C//DTD SVG 1.1//EN" "http://www.w3.org/Graphics/SVG/1.1/DTD/svg11.dtd">
<svg version="1.1" id="Layer_1" xmlns="http://www.w3.org/2000/svg" xmlns:xlink="http://www.w3.org/1999/xlink" x="0px" y="0px"
	width="164.840332px" height="191.9111328px" viewBox="0 0 164.840332 191.9111328"
	enable-background="new 0 0 164.840332 191.9111328" xml:space="preserve">
<rect y="-0.2783203" fill="#A41F35" width="164.1489258" height="191.9111328"/>
<polygon fill="#FFFFFF" points="100.3500977,45.8730469 100.3500977,56.0742188 107.4008789,56.0742188 107.4008789,112.8710938
	92.4799805,112.8710938 92.4799805,38.0664062 100.4086914,38.0664062 100.4086914,27.8686523 63.1948242,27.8686523
	63.1948242,38.0664062 71.1274414,38.0664062 71.1274414,112.8710938 56.0385742,112.8710938 56.0385742,56.0742188
	63.0893555,56.0742188 63.0893555,45.8730469 28.081543,45.8730469 28.081543,56.0742188 35.9907227,56.0742188
	35.9907227,121.8457031 48.8588867,134.9775391 71.1274414,134.9775391 71.1274414,150.1386719 63.2250977,150.1386719
	63.2250977,163.2705078 100.3842773,163.2705078 100.3842773,150.1386719 92.4799805,150.1386719 92.4799805,134.9775391
	114.5805664,134.9775391 127.449707,121.8457031 127.449707,56.0742188 135.3754883,56.0742188 135.3754883,45.8730469 "/>
</svg>
